# xmcd
#
# Track frame offsets:
#	150
#	21177
#	37507
#	55495
#	77872
#	93650
#	110150
#	130497
#	155325
#	182275
#
# Disc length: 2791 seconds
#
# Revision: 2
# Processed by: cddbd v1.5.2PL0 Copyright (c) Steve Scherf et al.
# Submitted via: EZCDAudioConverter 8.0.2.1
#
DISCID=7b0ae50a
DTITLE=Khánh Hà, Kiều Nga - Ước Hẹn
DYEAR=1989
DGENRE=
TTITLE0=Kiều Nga - Giấc mơ không đến hai lần
TTITLE1=Khánh Hà - Tình nghệ sĩ
TTITLE2=Kiều Nga - Đành rằng tình vỗ cánh bay
TTITLE3=Khánh Hà - Ngậm ngùi
TTITLE4=Kiều Nga - Nỗi niềm
TTITLE5=Khánh Hà - Ước hẹn
TTITLE6=Kiều Nga - Bản tình cuối
TTITLE7=Khánh Hà - Bài không tên số 7
TTITLE8=Kiều Nga - Còn tuổi nào cho em
TTITLE9=Khánh Hà - Bao giờ biết tương tư
EXTD=
EXTT0=
EXTT1=
EXTT2=
EXTT3=
EXTT4=
EXTT5=
EXTT6=
EXTT7=
EXTT8=
EXTT9=
PLAYORDER=
